<mxfile host="app.diagrams.net" modified="2023-05-09T11:07:57.312Z" agent="Mozilla/5.0 (Windows NT 10.0; Win64; x64) AppleWebKit/537.36 (KHTML, like Gecko) Chrome/112.0.0.0 Safari/537.36" version="21.2.9" etag="O46l1okOLkZ2hYHCYNIB" type="github">
  <diagram name="Page-1" id="OasT5FswpauGqwA0befl">
    <mxGraphModel>
      <root>
        <mxCell id="0" />
        <mxCell id="1" parent="0" />
      </root>
    </mxGraphModel>
  </diagram>
</mxfile>
